<svg xmlns="http://www.w3.org/2000/svg" xmlns:xlink="http://www.w3.org/1999/xlink" width="157px" height="48px" viewBox="0 0 157 48" version="1.1">
            <title>Untitled 15</title>
            <defs>
              <filter x="-5.5%" y="-22.2%" width="111.0%" height="144.4%" filterUnits="objectBoundingBox" id="filter-1">
                <feOffset dx="0" dy="1" in="SourceAlpha" result="shadowOffsetOuter1"></feOffset>
                <feGaussianBlur stdDeviation="1.5" in="shadowOffsetOuter1" result="shadowBlurOuter1"></feGaussianBlur>
                <feColorMatrix values="0 0 0 0 0   0 0 0 0 0   0 0 0 0 0  0 0 0 0.300347602 0" type="matrix" in="shadowBlurOuter1" result="shadowMatrixOuter1"></feColorMatrix>
                <feMerge>
                  <feMergeNode in="shadowMatrixOuter1"></feMergeNode>
                  <feMergeNode in="SourceGraphic"></feMergeNode>
                </feMerge>
              </filter>
              <polygon id="path-2" points="0.120147059 0.0285108434 24.8839706 0.0285108434 24.8839706 36 0.120147059 36"></polygon>
              <polygon id="path-4" points="0 0.0685115607 21.9650185 0.0685115607 21.9650185 24.9601301 0 24.9601301"></polygon>
            </defs>
            <g id="Page-1" stroke="none" stroke-width="1" fill="none" fill-rule="evenodd">
              <g id="Group-2" filter="url(#filter-1)" transform="translate(6.000000, 6.000000)">
                <g id="Logo">
                  <path d="M48.7672552,5 C45.5661754,5 42.8124909,7.09143687 41.710054,10.0328012 C41.652415,10.1830189 41.4568802,10.8033382 41.4568802,10.8033382 L37,30 L47.2371224,30 C50.7538304,30 53.7297534,27.4766328 54.5727419,24.0746009 C54.5727419,24.0760522 54.5718663,24.0760522 54.5718663,24.0775036 L54.5727419,24.0775036 L59,5 L48.7672552,5 Z" id="Fill-1" fill="#15B04B"></path>
                  <g id="Group-5" transform="translate(16.000000, 0.000000)">
                    <mask id="mask-3" fill="white">
                      <use xlink:href="#path-2"></use>
                    </mask>
                    <g id="Clip-4"></g>
                    <path d="M14.5648529,0.0285108434 C11.1113235,0.0285108434 8.19573529,2.32788434 7.29132353,5.46667952 C7.22397059,5.70104096 7.16882353,5.94075181 7.12294118,6.18320964 L0.120147059,36.0000289 L10.4285294,36.0000289 C13.9602941,36.0000289 16.9319118,33.5946795 17.7610294,30.3465831 L17.7610294,30.3471614 L17.7636765,30.3471614 L24.8839706,0.0285108434 L14.5648529,0.0285108434 Z" id="Fill-3" fill="#F17126" mask="url(#mask-3)"></path>
                  </g>
                  <g id="Group-8" transform="translate(0.000000, 5.000000)">
                    <mask id="mask-5" fill="white">
                      <use xlink:href="#path-4"></use>
                    </mask>
                    <g id="Clip-7"></g>
                    <path d="M11.7471113,0.0685115607 C8.43429007,0.0685115607 5.60124371,2.3042052 4.58443576,5.40102601 C4.56258146,5.47111272 4.54029007,5.54004335 4.51916424,5.60998555 L4.34840927,6.27645954 L-1.45695364e-05,24.9601301 L10.4671775,24.9601301 C13.5943828,24.9601301 16.2794026,22.9014595 17.3224358,20.018078 L17.7362106,18.2400434 L21.9650185,0.0685115607 L11.7471113,0.0685115607 Z" id="Fill-6" fill="#1168AF" mask="url(#mask-5)"></path>
                  </g>
                  <path d="M9.44355568,11 L9.43993879,11.0153065 L9.28844682,11.0153065 C8.59233498,11.0153065 7.9360089,11.263828 7.33449259,11.7548876 C6.75551228,12.2275795 6.37490436,12.8022681 6.24386172,13.2739859 L6.23843639,13.2739859 L4,23 L4.12728664,22.9981911 C4.83174515,22.9981911 5.496557,22.7484172 6.10057731,22.2534614 C6.70793629,21.7597579 7.09591709,21.1545954 7.25255617,20.4553677 L7.74208806,18.3448828 L12.1935035,18.3462743 C12.8890589,18.3462743 13.5601308,18.0862033 14.1676289,17.5957003 C14.7733185,17.105893 15.1601864,16.5036527 15.3169646,15.8074863 L15.3452041,15.6793293 L8.36141059,15.6741808 L8.82659804,13.6686148 L14.8750087,13.6601266 C15.5711205,13.6601266 16.2288377,13.4148055 16.8285456,12.9277813 C17.4272797,12.4402004 17.8016276,11.8273847 17.9692565,11.1372017 L18,11.0086273 L9.44355568,11 Z" id="Fill-9" fill="#FEFEFE"></path>
                  <path d="M32.6150829,15.6720935 L26.5759598,15.6666667 L27.0648968,13.6577611 L33.1044576,13.6634662 L32.6150829,15.6720935 Z M35.4086332,11.5904126 C35.00549,11.2052459 34.4793466,11.0098796 33.8446477,11.0098796 L24.8913086,11 L22,22.9841369 L22.0033559,22.9841369 L22,23 L22.1333597,22.9980519 C22.8722367,22.9980519 23.5688005,22.7484172 24.2032075,22.2534614 C24.8398031,21.7597579 25.2460104,21.1544563 25.4110321,20.4553677 L25.9307556,18.3202533 L32.1293559,18.3252626 C32.8565602,18.3252626 33.5067253,18.2455298 34.1380683,17.7608711 C34.7648881,17.2764906 35.2122414,16.5074097 35.3896652,15.7999722 L35.9337553,13.5791414 C35.9737341,13.4038127 35.9962039,13.2202741 35.9995598,13.033396 C36.0106487,12.461212 35.8122142,11.9750226 35.4086332,11.5904126 L35.4086332,11.5904126 Z" id="Fill-11" fill="#FEFEFE"></path>
                  <path d="M53.4519604,11.5829463 C53.0790329,11.1968698 52.5834915,11 51.982931,11 L48.2675388,11 L48.033033,11 L43.0825674,11 L43.06511,11.0856864 C43.0251093,11.2741965 43.0033907,11.4477986 43.0003666,11.6144343 C42.990607,12.1993312 43.1757649,12.691854 43.5502045,13.0802991 C43.9242317,13.4658183 44.4188109,13.6621308 45.0201961,13.6621308 L46.8823597,13.6621308 L44.7613599,23 L44.8872728,22.9981887 C45.5830927,22.9981887 46.2400115,22.7480959 46.837273,22.2525079 C47.437421,21.7581739 47.8196958,21.1522385 47.9742003,20.4521178 L49.5294168,13.6621308 L53.9205598,13.6621308 L53.9384295,13.577141 C53.9765058,13.3986625 53.9967124,13.2150288 53.999599,13.0316738 C54.009771,12.4544399 53.8264001,11.9674902 53.4519604,11.5829463" id="Fill-13" fill="#FEFEFE"></path>
                  <path d="M57.6519043,27.8275351 L58.0237277,27.8275351 C58.2704415,27.8275351 58.4879002,27.7923409 58.4879002,27.4900216 C58.4879002,27.221548 58.2448264,27.1789374 58.0287159,27.1789374 L57.6519043,27.1789374 L57.6519043,27.8275351 Z M57.2297944,26.8574703 L58.0718571,26.8574703 C58.6146276,26.8574703 58.9105494,27.0458468 58.9105494,27.5234628 C58.9105494,27.9118123 58.687698,28.0989752 58.315605,28.1330906 L58.9249747,29.1229773 L58.4931581,29.1229773 L57.9073812,28.1475189 L57.6519043,28.1475189 L57.6519043,29.1229773 L57.2297944,29.1229773 L57.2297944,26.8574703 Z M59.514122,27.9985167 C59.514122,27.0636462 58.8374789,26.3860572 57.9991911,26.3860572 C57.1638692,26.3860572 56.4881699,27.0636462 56.4881699,27.9985167 C56.4881699,28.9356796 57.1638692,29.6123247 57.9991911,29.6123247 C58.8374789,29.6123247 59.514122,28.9356796 59.514122,27.9985167 L59.514122,27.9985167 Z M56,27.9985167 C56,26.8969795 56.8972026,26 57.9991911,26 C59.1034715,26 60,26.8969795 60,27.9985167 C60,29.1014024 59.1034715,30 57.9991911,30 C56.8972026,30 56,29.1014024 56,27.9985167 L56,27.9985167 Z" id="Fill-15" fill="#1168AF"></path>
                </g>
                <g id="Crowd-Work" transform="translate(64.703125, 11.437500)" fill="#FFFFFF" fill-rule="nonzero">
                  <path d="M6.8125,12.1328125 C6.55729167,12.3151042 6.22265625,12.4648438 5.80859375,12.5820312 C5.39453125,12.6992188 4.9296875,12.7578125 4.4140625,12.7578125 C3.80989583,12.7578125 3.23828125,12.6341146 2.69921875,12.3867188 C2.16015625,12.1393229 1.69010417,11.7682292 1.2890625,11.2734375 C0.888020833,10.7786458 0.572916667,10.1575521 0.34375,9.41015625 C0.114583333,8.66276042 0,7.78385417 0,6.7734375 C0,5.76822917 0.114583333,4.88932292 0.34375,4.13671875 C0.572916667,3.38411458 0.888020833,2.76041667 1.2890625,2.265625 C1.69010417,1.77083333 2.16015625,1.40104167 2.69921875,1.15625 C3.23828125,0.911458333 3.80989583,0.7890625 4.4140625,0.7890625 C4.90364583,0.7890625 5.36197917,0.84765625 5.7890625,0.96484375 C6.21614583,1.08203125 6.55729167,1.23177083 6.8125,1.4140625 L6.140625,3.21875 C5.99479167,3.09895833 5.79036458,2.9921875 5.52734375,2.8984375 C5.26432292,2.8046875 4.97916667,2.7578125 4.671875,2.7578125 C3.95833333,2.7578125 3.37239583,3.09375 2.9140625,3.765625 C2.45572917,4.4375 2.2265625,5.43489583 2.2265625,6.7578125 C2.2265625,8.08072917 2.45572917,9.07552083 2.9140625,9.7421875 C3.37239583,10.4088542 3.95833333,10.7421875 4.671875,10.7421875 C4.97916667,10.7421875 5.26432292,10.6966146 5.52734375,10.6054688 C5.79036458,10.5143229 5.99479167,10.4088542 6.140625,10.2890625 L6.8125,12.1328125 Z" id="Path"></path>
                  <path d="M12.34375,5.6328125 C12.0677083,5.54947917 11.7526042,5.5078125 11.3984375,5.5078125 C11.2057292,5.5078125 11.0169271,5.5234375 10.8320312,5.5546875 C10.6471354,5.5859375 10.4895833,5.62760417 10.359375,5.6796875 L10.359375,12.5625 L8.28125,12.5625 L8.28125,4.3671875 C8.70833333,4.19010417 9.20963542,4.04296875 9.78515625,3.92578125 C10.3606771,3.80859375 10.984375,3.75 11.65625,3.75 C12.0729167,3.75 12.4296875,3.77604167 12.7265625,3.828125 L12.34375,5.6328125 Z" id="Path"></path>
                  <path d="M20.859375,8.2421875 C20.859375,8.8828125 20.7760417,9.48046875 20.609375,10.0351562 C20.4427083,10.5898438 20.1992188,11.0677083 19.8789062,11.46875 C19.5585938,11.8697917 19.1666667,12.1848958 18.703125,12.4140625 C18.2395833,12.6432292 17.7083333,12.7578125 17.109375,12.7578125 C16.5052083,12.7578125 15.9700521,12.6432292 15.5039062,12.4140625 C15.0377604,12.1848958 14.6445312,11.8697917 14.3242188,11.46875 C14.0039062,11.0677083 13.7617188,10.5898438 13.5976562,10.0351562 C13.4335938,9.48046875 13.3515625,8.8828125 13.3515625,8.2421875 C13.3515625,7.6015625 13.4335938,7.00651042 13.5976562,6.45703125 C13.7617188,5.90755208 14.0039062,5.43359375 14.3242188,5.03515625 C14.6445312,4.63671875 15.0377604,4.32291667 15.5039062,4.09375 C15.9700521,3.86458333 16.5052083,3.75 17.109375,3.75 C17.7083333,3.75 18.2395833,3.86458333 18.703125,4.09375 C19.1666667,4.32291667 19.5585938,4.63671875 19.8789062,5.03515625 C20.1992188,5.43359375 20.4427083,5.90755208 20.609375,6.45703125 C20.7760417,7.00651042 20.859375,7.6015625 20.859375,8.2421875 Z M18.7578125,8.2265625 C18.7578125,7.36197917 18.6223958,6.68489583 18.3515625,6.1953125 C18.0807292,5.70572917 17.6666667,5.4609375 17.109375,5.4609375 C16.546875,5.4609375 16.1289062,5.70572917 15.8554688,6.1953125 C15.5820312,6.68489583 15.4453125,7.36197917 15.4453125,8.2265625 C15.4453125,9.09114583 15.5820312,9.765625 15.8554688,10.25 C16.1289062,10.734375 16.546875,10.9765625 17.109375,10.9765625 C17.6666667,10.9765625 18.0807292,10.734375 18.3515625,10.25 C18.6223958,9.765625 18.7578125,9.09114583 18.7578125,8.2265625 Z" id="Shape"></path>
                  <path d="M31.671875,12.5625 L29.5,12.5625 L28.21875,7.6484375 C28.1770833,7.50260417 28.1458333,7.35416667 28.125,7.203125 C28.1041667,7.05208333 28.0833333,6.9140625 28.0625,6.7890625 C28.0364583,6.63802083 28.0130208,6.4921875 27.9921875,6.3515625 L27.9609375,6.3515625 C27.9505208,6.4921875 27.9296875,6.63802083 27.8984375,6.7890625 C27.8776042,6.9140625 27.8515625,7.05208333 27.8203125,7.203125 C27.7890625,7.35416667 27.7578125,7.50260417 27.7265625,7.6484375 L26.4453125,12.5625 L24.28125,12.5625 L21.8671875,3.9375 L23.9765625,3.9375 L25.1484375,9.21875 C25.1796875,9.38020833 25.2083333,9.54296875 25.234375,9.70703125 C25.2604167,9.87109375 25.2838542,10.0234375 25.3046875,10.1640625 C25.3255208,10.3255208 25.3489583,10.4791667 25.375,10.625 L25.40625,10.625 C25.4270833,10.4791667 25.453125,10.3255208 25.484375,10.1640625 C25.5052083,10.0234375 25.53125,9.87109375 25.5625,9.70703125 C25.59375,9.54296875 25.6302083,9.38020833 25.671875,9.21875 L27.015625,3.9375 L28.9375,3.9375 L30.265625,9.21875 C30.3072917,9.38020833 30.3450521,9.54296875 30.3789062,9.70703125 C30.4127604,9.87109375 30.4401042,10.0234375 30.4609375,10.1640625 C30.4921875,10.3255208 30.5182292,10.4791667 30.5390625,10.625 L30.5703125,10.625 C30.5911458,10.4791667 30.6119792,10.3255208 30.6328125,10.1640625 C30.6536458,10.0234375 30.6757812,9.87109375 30.6992188,9.70703125 C30.7226562,9.54296875 30.7552083,9.38020833 30.796875,9.21875 L31.9765625,3.9375 L34.078125,3.9375 L31.671875,12.5625 Z" id="Path"></path>
                  <path d="M42.2421875,12.1328125 C41.9296875,12.2994792 41.5039062,12.4453125 40.9648438,12.5703125 C40.4257812,12.6953125 39.8411458,12.7578125 39.2109375,12.7578125 C37.8671875,12.7578125 36.8411458,12.3684896 36.1328125,11.5898438 C35.4244792,10.8111979 35.0703125,9.71614583 35.0703125,8.3046875 C35.0703125,7.64322917 35.1523438,7.03776042 35.3164062,6.48828125 C35.4804688,5.93880208 35.7252604,5.47005208 36.0507812,5.08203125 C36.3763021,4.69401042 36.7825521,4.39322917 37.2695312,4.1796875 C37.7565104,3.96614583 38.3151042,3.859375 38.9453125,3.859375 C39.1692708,3.859375 39.390625,3.875 39.609375,3.90625 C39.828125,3.9375 40,3.97916667 40.125,4.03125 L40.125,0 L42.2421875,0 L42.2421875,12.1328125 Z M40.125,5.6640625 C40.0416667,5.62239583 39.90625,5.5859375 39.71875,5.5546875 C39.53125,5.5234375 39.3463542,5.5078125 39.1640625,5.5078125 C38.5026042,5.5078125 38.0039062,5.76302083 37.6679688,6.2734375 C37.3320312,6.78385417 37.1640625,7.45052083 37.1640625,8.2734375 C37.1640625,9.1484375 37.3346354,9.828125 37.6757812,10.3125 C38.0169271,10.796875 38.5130208,11.0390625 39.1640625,11.0390625 C39.3463542,11.0390625 39.53125,11.0234375 39.71875,10.9921875 C39.90625,10.9609375 40.0416667,10.9192708 40.125,10.8671875 L40.125,5.6640625 Z" id="Shape"></path>
                  <path d="M54.1796875,12.5625 L52.0625,12.5625 L50.546875,5.84375 C50.4947917,5.65104167 50.4518229,5.45833333 50.4179688,5.265625 C50.3841146,5.07291667 50.3567708,4.8984375 50.3359375,4.7421875 C50.3046875,4.54947917 50.2838542,4.3671875 50.2734375,4.1953125 L50.2421875,4.1953125 C50.2213542,4.3671875 50.1953125,4.54947917 50.1640625,4.7421875 C50.1432292,4.8984375 50.1158854,5.07291667 50.0820312,5.265625 C50.0481771,5.45833333 50.0104167,5.65104167 49.96875,5.84375 L48.453125,12.5625 L46.3515625,12.5625 L43.6015625,0.9765625 L45.78125,0.9765625 L47.234375,8.2578125 C47.265625,8.44010417 47.2942708,8.61848958 47.3203125,8.79296875 C47.3463542,8.96744792 47.3697917,9.13020833 47.390625,9.28125 C47.4270833,9.46354167 47.4557292,9.63541667 47.4765625,9.796875 L47.5078125,9.796875 C47.5182292,9.63541667 47.5390625,9.46354167 47.5703125,9.28125 C47.5911458,9.13020833 47.6145833,8.96744792 47.640625,8.79296875 C47.6666667,8.61848958 47.7005208,8.44010417 47.7421875,8.2578125 L49.359375,0.9765625 L51.15625,0.9765625 L52.7734375,8.2578125 C52.8151042,8.44010417 52.8515625,8.61848958 52.8828125,8.79296875 C52.9140625,8.96744792 52.9401042,9.13020833 52.9609375,9.28125 C52.9921875,9.46354167 53.0130208,9.63541667 53.0234375,9.796875 L53.0390625,9.796875 C53.0598958,9.63541667 53.0885417,9.46354167 53.125,9.28125 C53.1458333,9.13020833 53.1692708,8.96744792 53.1953125,8.79296875 C53.2213542,8.61848958 53.2552083,8.44010417 53.296875,8.2578125 L54.734375,0.9765625 L56.9140625,0.9765625 L54.1796875,12.5625 Z" id="Path"></path>
                  <path d="M65.40625,8.2421875 C65.40625,8.8828125 65.3229167,9.48046875 65.15625,10.0351562 C64.9895833,10.5898438 64.7460938,11.0677083 64.4257812,11.46875 C64.1054688,11.8697917 63.7135417,12.1848958 63.25,12.4140625 C62.7864583,12.6432292 62.2552083,12.7578125 61.65625,12.7578125 C61.0520833,12.7578125 60.5169271,12.6432292 60.0507812,12.4140625 C59.5846354,12.1848958 59.1914062,11.8697917 58.8710938,11.46875 C58.5507812,11.0677083 58.3085938,10.5898438 58.1445312,10.0351562 C57.9804688,9.48046875 57.8984375,8.8828125 57.8984375,8.2421875 C57.8984375,7.6015625 57.9804688,7.00651042 58.1445312,6.45703125 C58.3085938,5.90755208 58.5507812,5.43359375 58.8710938,5.03515625 C59.1914062,4.63671875 59.5846354,4.32291667 60.0507812,4.09375 C60.5169271,3.86458333 61.0520833,3.75 61.65625,3.75 C62.2552083,3.75 62.7864583,3.86458333 63.25,4.09375 C63.7135417,4.32291667 64.1054688,4.63671875 64.4257812,5.03515625 C64.7460938,5.43359375 64.9895833,5.90755208 65.15625,6.45703125 C65.3229167,7.00651042 65.40625,7.6015625 65.40625,8.2421875 Z M63.3046875,8.2265625 C63.3046875,7.36197917 63.1692708,6.68489583 62.8984375,6.1953125 C62.6276042,5.70572917 62.2135417,5.4609375 61.65625,5.4609375 C61.09375,5.4609375 60.6757812,5.70572917 60.4023438,6.1953125 C60.1289062,6.68489583 59.9921875,7.36197917 59.9921875,8.2265625 C59.9921875,9.09114583 60.1289062,9.765625 60.4023438,10.25 C60.6757812,10.734375 61.09375,10.9765625 61.65625,10.9765625 C62.2135417,10.9765625 62.6276042,10.734375 62.8984375,10.25 C63.1692708,9.765625 63.3046875,9.09114583 63.3046875,8.2265625 Z" id="Shape"></path>
                  <path d="M71.046875,5.6328125 C70.7708333,5.54947917 70.4557292,5.5078125 70.1015625,5.5078125 C69.9088542,5.5078125 69.7200521,5.5234375 69.5351562,5.5546875 C69.3502604,5.5859375 69.1927083,5.62760417 69.0625,5.6796875 L69.0625,12.5625 L66.984375,12.5625 L66.984375,4.3671875 C67.4114583,4.19010417 67.9127604,4.04296875 68.4882812,3.92578125 C69.0638021,3.80859375 69.6875,3.75 70.359375,3.75 C70.7760417,3.75 71.1328125,3.77604167 71.4296875,3.828125 L71.046875,5.6328125 Z" id="Path"></path>
                  <polygon id="Path" points="77.8125 12.5625 74.8359375 8.2109375 74.8046875 8.2109375 74.8046875 12.5625 72.7421875 12.5625 72.7421875 0 74.8046875 0 74.8046875 7.7109375 74.8359375 7.7109375 77.5703125 3.9375 79.9921875 3.9375 77 7.96875 80.1796875 12.5625"></polygon>
                </g>
              </g>
            </g>
          </svg>